<svg xmlns="http://www.w3.org/2000/svg" xmlns:xlink="http://www.w3.org/1999/xlink" width="512" height="512" viewBox="0 0 512 512" fill="none">
<path d="M190.044 381.332L174.801 417.521L269.804 417.521L241.09 501.25C241.09 501.25 264.486 495.574 291.073 485.995C317.659 476.415 327.94 459.031 333.257 444.13C338.574 429.229 342.119 417.521 342.119 417.521L467.608 417.521L484.269 381.332L358.071 381.332L390.329 288.024L322.268 288.024L257.751 364.303L294.972 356.852L285.756 381.332L190.044 381.332Z" stroke="rgba(0, 255, 0, 1)" stroke-width="1"      fill="#00FF00" >
</path>
<path d="M192.524 347.983C192.524 347.983 158.492 358.272 142.895 363.594C127.299 368.915 107.092 386.3 101.066 405.104C95.0393 423.907 94.3303 429.584 94.3303 429.584C94.3303 429.584 120.563 421.779 144.313 413.618C168.064 405.458 181.889 387.009 185.08 376.011C188.27 365.013 192.524 347.983 192.524 347.983Z" stroke="rgba(0, 255, 0, 1)" stroke-width="1"      fill="#00FF00" >
</path>
<path d="M218.047 279.864L166.292 295.475C150.334 300.442 136.509 311.085 128.355 330.599L119.5 357.208L176.218 339.823C190.397 335.211 204.577 320.31 210.249 303.28L218.047 279.864Z" stroke="rgba(255, 0, 0, 1)" stroke-width="1"      fill="#FF0000" >
</path>
<path d="M167.355 420.715C167.355 420.715 127.653 431.004 116.309 434.907C104.966 438.809 86.3221 451.718 78.0246 471.095C74.8342 478.546 65.263 501.607 65.263 501.607L116.309 486.706C131.907 482.448 150.34 466.483 156.012 449.453L167.355 420.715Z" stroke="rgba(0, 0, 255, 1)" stroke-width="1"      fill="#0000FF" >
</path>
<path d="M371.916 367.468L374.376 370.32C477.215 294.763 455.239 169.524 442.105 140.788C434.302 123.718 418.199 84.4157 376.553 53.1552C348.194 31.1568 304.723 13.1517 255.644 12C143.551 13.2352 96.1579 88.2775 76.9536 126.575C57.7493 164.872 35.5353 261.413 109.949 345.116L112.785 342.633C30.917 230.547 107.844 126.575 107.844 126.575C107.844 126.575 151.082 50.317 255.644 50.317C297.573 50.317 366.243 66.9903 412.328 140.788C412.328 140.788 486.047 262.478 371.916 367.468Z" stroke="rgba(255, 0, 0, 1)" stroke-width="1"      fill="#FF0000" >
</path>
<path d="M165.58 150.72L197.838 144.334L145.729 285.184C179.76 275.25 219.108 277.379 235.06 236.579L293.196 75.5058L226.552 75.5058L165.58 150.72Z" stroke="rgba(0, 0, 255, 1)" stroke-width="1"      fill="#0000FF" >
</path>
<path fill-rule="evenodd"  fill="rgba(224, 224, 224, 0.01)"  d="M0 3L0 509C0 510.657 1.34315 512 3 512L509 512C510.657 512 512 510.657 512 509L512 3C512 1.34315 510.657 0 509 0L3 0C1.34315 0 0 1.34315 0 3ZM3 511C1.89543 511 1 510.105 1 509L1 3C1 1.89543 1.89543 1 3 1L509 1C510.105 1 511 1.89543 511 3L511 509C511 510.105 510.105 511 509 511L3 511Z">
</path>
</svg>
